# SSTK version 0.8.0
# 3
mtllib original-3.mtl
o Group3/mesh5/mesh5-geometry#mesh5-geometry
v -0.615120 -0.126619 -0.111251
v -0.258128 -0.074892 -0.060911
v -0.609612 -0.141540 -0.125770
v -0.621254 -0.107638 -0.092778
v -0.258128 -0.093258 -0.042039
v -0.609612 -0.159905 -0.106898
v -0.615120 -0.144985 -0.092378
v -0.626562 -0.088529 -0.074182
v -0.621254 -0.126003 -0.073906
v -0.631039 -0.069310 -0.055480
v -0.626562 -0.106894 -0.055310
v -0.262191 -0.063887 -0.050201
v -0.631039 -0.087676 -0.036607
v -0.634679 -0.050002 -0.036689
v -0.265775 -0.052796 -0.039409
v -0.262191 -0.082253 -0.031329
v -0.634679 -0.068368 -0.017817
v -0.268876 -0.041632 -0.028543
v -0.637481 -0.030622 -0.017829
v -0.265775 -0.071162 -0.020536
v -0.637481 -0.048988 0.001043
v -0.271491 -0.030403 -0.017616
v -0.268876 -0.059997 -0.009671
v -0.639441 -0.011189 0.001083
v -0.271491 -0.048769 0.001256
v -0.639441 -0.029554 0.019955
v -0.273619 -0.019122 -0.006637
v -0.640557 0.008279 0.020028
v -0.275256 -0.007799 0.004382
v -0.273619 -0.037488 0.012235
v -0.640557 -0.010087 0.038900
v -0.275256 -0.026164 0.023254
v -0.640828 0.027762 0.038988
v -0.276401 0.003556 0.015432
v -0.276401 -0.014810 0.034304
v -0.640828 0.009396 0.057860
v -0.277053 0.014930 0.026501
v -0.277053 -0.003436 0.045373
v -0.640255 0.047241 0.057945
v -0.277212 0.026313 0.037578
v -0.277212 0.007948 0.056451
v -0.640255 0.028876 0.076817
v -0.276877 0.037695 0.048654
v -0.276877 0.019329 0.067527
v -0.638837 0.066699 0.076880
v -0.276048 0.049063 0.059718
v -0.276048 0.030697 0.078590
v -0.638837 0.048333 0.095753
v -0.637046 0.082079 0.091848
v -0.274727 0.060408 0.070758
v -0.274727 0.042042 0.089630
v -0.637046 0.063713 0.110720
vn 0 0.6974269153794539 -0.7166559130463517
vn 0 -0.6974269153794539 0.7166559130463517
vn 0.2557849136525271 -0.6928157661203324 -0.6742257723959135
vn -0.2557849136525271 0.6928157661203324 0.6742257723959135
vn -0.9667337429759841 -0.18330995126366473 -0.17839095257147133
vn -0.9705923063456716 -0.1725200544520821 -0.16789105299104173
vn 0.9667337429759841 0.18330995126366473 0.17839095257147133
vn 0.9705923063456716 0.1725200544520821 0.16789105299104173
vn -0.9776050357950091 -0.150819005522238 -0.1467720053740571
vn 0.9776050357950091 0.150819005522238 0.1467720053740571
vn -0.9836734422149219 -0.1289710579795325 -0.1255110564240729
vn 0.9836734422149219 0.1289710579795325 0.1255110564240729
vn -0.9887914607442978 -0.10699904985803788 -0.10412804852024568
vn 0.9887914607442978 0.10699904985803788 0.10412804852024568
vn -0.9929540357875536 -0.08492400306078851 -0.08264500297864993
vn 0.9929540357875536 0.08492400306078851 0.08264500297864993
vn -0.9961572003137851 -0.06276701262160016 -0.06108301228297039
vn 0.9961572003137851 0.06276701262160016 0.06108301228297039
vn -0.9983980208036197 -0.04054900084491954 -0.03946100082224888
vn 0.9983980208036197 0.04054900084491954 0.03946100082224888
vn -0.9996742103609664 -0.01829200384917763 -0.017801003745856712
vn 0.9996742103609664 0.01829200384917763 0.017801003745856712
vn -0.9999845560619547 0.003982998231768242 0.0038759982792703255
vn 0.9999845560619547 -0.003982998231768242 -0.0038759982792703255
vn -0.999328737547827 0.026253993104954073 0.025549993289844464
vn 0.999328737547827 -0.026253993104954073 -0.025549993289844464
vn -0.9977074195096188 0.048500020392977614 0.047198019845520765
vn 0.9977074195096188 -0.048500020392977614 -0.047198019845520765
vn -0.9965351527140413 0.059606009134323575 0.05800700888928477
vn 0.9965351527140413 -0.059606009134323575 -0.05800700888928477
vn 0.08317301156279605 0.7141730992850653 0.6950100966210054
vn -0.08317301156279605 -0.7141730992850653 -0.6950100966210054
usemtl material_0_0
f 1//1 2//1 3//1
f 2//1 1//1 4//1
f 3//2 2//2 1//2
f 4//2 1//2 2//2
f 5//3 3//3 2//3
f 2//4 3//4 5//4
f 6//5 1//6 3//5
f 3//7 1//8 6//7
f 7//6 4//9 1//6
f 1//8 4//10 7//8
f 2//1 4//1 8//1
f 8//2 4//2 2//2
f 3//3 5//3 6//3
f 6//4 5//4 3//4
f 1//6 6//5 7//6
f 7//8 6//7 1//8
f 4//9 7//6 9//9
f 9//10 7//8 4//10
f 9//9 8//11 4//9
f 4//10 8//12 9//10
f 2//1 8//1 10//1
f 10//2 8//2 2//2
f 5//2 7//2 6//2
f 6//1 7//1 5//1
f 7//2 5//2 9//2
f 9//1 5//1 7//1
f 8//11 9//9 11//11
f 11//12 9//10 8//12
f 11//11 10//13 8//11
f 8//12 10//14 11//12
f 2//1 10//1 12//1
f 12//2 10//2 2//2
f 9//2 5//2 11//2
f 11//1 5//1 9//1
f 10//13 11//11 13//13
f 13//14 11//12 10//14
f 12//1 10//1 14//1
f 14//2 10//2 12//2
f 11//2 5//2 13//2
f 13//1 5//1 11//1
f 13//13 14//15 10//13
f 10//14 14//16 13//14
f 12//1 14//1 15//1
f 15//2 14//2 12//2
f 13//2 5//2 16//2
f 16//1 5//1 13//1
f 14//15 13//13 17//15
f 17//16 13//14 14//16
f 15//1 14//1 18//1
f 18//2 14//2 15//2
f 13//2 16//2 17//2
f 17//1 16//1 13//1
f 17//15 19//17 14//15
f 14//16 19//18 17//16
f 18//1 14//1 19//1
f 19//2 14//2 18//2
f 17//2 16//2 20//2
f 20//1 16//1 17//1
f 19//17 17//15 21//17
f 21//18 17//16 19//18
f 18//1 19//1 22//1
f 22//2 19//2 18//2
f 17//2 20//2 23//2
f 23//1 20//1 17//1
f 17//2 23//2 21//2
f 21//1 23//1 17//1
f 21//17 24//19 19//17
f 19//18 24//20 21//18
f 22//1 19//1 24//1
f 24//2 19//2 22//2
f 21//2 23//2 25//2
f 25//1 23//1 21//1
f 24//19 21//17 26//19
f 26//20 21//18 24//20
f 22//1 24//1 27//1
f 27//2 24//2 22//2
f 21//2 25//2 26//2
f 26//1 25//1 21//1
f 26//19 28//21 24//19
f 24//20 28//22 26//20
f 27//1 24//1 29//1
f 29//2 24//2 27//2
f 26//2 25//2 30//2
f 30//1 25//1 26//1
f 28//21 26//19 31//21
f 31//22 26//20 28//22
f 29//1 24//1 28//1
f 28//2 24//2 29//2
f 26//2 30//2 32//2
f 32//1 30//1 26//1
f 26//2 32//2 31//2
f 31//1 32//1 26//1
f 31//21 33//23 28//21
f 28//22 33//24 31//22
f 29//1 28//1 34//1
f 34//2 28//2 29//2
f 31//2 32//2 35//2
f 35//1 32//1 31//1
f 33//23 31//21 36//23
f 36//24 31//22 33//24
f 37//1 28//1 33//1
f 33//2 28//2 37//2
f 34//1 28//1 37//1
f 37//2 28//2 34//2
f 31//2 35//2 38//2
f 38//1 35//1 31//1
f 31//2 38//2 36//2
f 36//1 38//1 31//1
f 36//23 39//25 33//23
f 33//24 39//26 36//24
f 37//1 33//1 40//1
f 40//2 33//2 37//2
f 36//2 38//2 41//2
f 41//1 38//1 36//1
f 39//25 36//23 42//25
f 42//26 36//24 39//26
f 43//1 33//1 39//1
f 39//2 33//2 43//2
f 40//1 33//1 43//1
f 43//2 33//2 40//2
f 36//2 41//2 44//2
f 44//1 41//1 36//1
f 36//2 44//2 42//2
f 42//1 44//1 36//1
f 42//25 45//27 39//25
f 39//26 45//28 42//26
f 43//1 39//1 46//1
f 46//2 39//2 43//2
f 42//2 44//2 47//2
f 47//1 44//1 42//1
f 45//27 42//25 48//27
f 48//28 42//26 45//28
f 46//1 39//1 45//1
f 45//2 39//2 46//2
f 42//2 47//2 48//2
f 48//1 47//1 42//1
f 48//27 49//29 45//27
f 45//28 49//30 48//28
f 46//1 45//1 50//1
f 50//2 45//2 46//2
f 48//2 47//2 51//2
f 51//1 47//1 48//1
f 49//29 48//27 52//29
f 52//30 48//28 49//30
f 50//1 45//1 49//1
f 49//2 45//2 50//2
f 48//2 51//2 52//2
f 52//1 51//1 48//1
f 51//31 49//31 52//31
f 52//32 49//32 51//32
f 49//31 51//31 50//31
f 50//32 51//32 49//32
