# SSTK version 0.8.0
# 11
mtllib original-11.mtl
o mesh19/mesh19-geometry#mesh19-geometry
v -0.006989 0.285825 0.078590
v 0.022721 0.284504 0.070758
v 0.004355 0.284504 0.089630
v 0.011377 0.285825 0.059718
v -0.018358 0.286653 0.067527
v 0.000008 0.286653 0.048654
v -0.029739 0.286988 0.056451
v -0.011373 0.286988 0.037578
v -0.041122 0.286830 0.045373
v -0.022757 0.286830 0.026501
v -0.052497 0.286178 0.034304
v -0.034131 0.286178 0.015432
v -0.063851 0.285033 0.023254
v -0.045485 0.285033 0.004382
v -0.075174 0.283395 0.012235
v -0.056808 0.283395 -0.006637
v -0.086456 0.281268 0.001256
v -0.068090 0.281268 -0.017616
v -0.097684 0.278653 -0.009671
v -0.079318 0.278653 -0.028543
v -0.108849 0.275552 -0.020536
v -0.090483 0.275552 -0.039409
v -0.119939 0.271968 -0.031329
v -0.101573 0.271968 -0.050201
v -0.130945 0.267905 -0.042039
v -0.112579 0.267905 -0.060911
vn -0.048500020392977614 -0.9977074195096188 -0.047198019845520765
vn -0.059606009134323575 -0.9965351527140413 -0.05800700888928477
vn -0.026253993104954073 -0.999328737547827 -0.025549993289844464
vn -0.003982998231768242 -0.9999845560619547 -0.0038759982792703255
vn 0.01829200384917763 -0.9996742103609664 0.017801003745856712
vn 0.04054900084491954 -0.9983980208036197 0.03946100082224888
vn 0.06276701262160016 -0.9961572003137851 0.06108301228297039
vn 0.08492400306078851 -0.9929540357875536 0.08264500297864993
vn 0.10699904985803788 -0.9887914607442978 0.10412804852024568
vn 0.1289710579795325 -0.9836734422149219 0.1255110564240729
vn 0.150819005522238 -0.9776050357950091 0.1467720053740571
vn 0.1725200544520821 -0.9705923063456716 0.16789105299104173
vn 0.18330995126366473 -0.9667337429759841 0.17839095257147133
vn 0.059606009134323575 0.9965351527140413 0.05800700888928477
vn 0.048500020392977614 0.9977074195096188 0.047198019845520765
vn 0.026253993104954073 0.999328737547827 0.025549993289844464
vn 0.003982998231768242 0.9999845560619547 0.0038759982792703255
vn -0.01829200384917763 0.9996742103609664 -0.017801003745856712
vn -0.04054900084491954 0.9983980208036197 -0.03946100082224888
vn -0.06276701262160016 0.9961572003137851 -0.06108301228297039
vn -0.08492400306078851 0.9929540357875536 -0.08264500297864993
vn -0.10699904985803788 0.9887914607442978 -0.10412804852024568
vn -0.1289710579795325 0.9836734422149219 -0.1255110564240729
vn -0.150819005522238 0.9776050357950091 -0.1467720053740571
vn -0.1725200544520821 0.9705923063456716 -0.16789105299104173
vn -0.18330995126366473 0.9667337429759841 -0.17839095257147133
usemtl material_0_0
f 1//1 2//2 3//2
f 2//2 1//1 4//1
f 5//3 4//1 1//1
f 4//1 5//3 6//3
f 7//4 6//3 5//3
f 6//3 7//4 8//4
f 9//5 8//4 7//4
f 8//4 9//5 10//5
f 11//6 10//5 9//5
f 10//5 11//6 12//6
f 13//7 12//6 11//6
f 12//6 13//7 14//7
f 15//8 14//7 13//7
f 14//7 15//8 16//8
f 17//9 16//8 15//8
f 16//8 17//9 18//9
f 19//10 18//9 17//9
f 18//9 19//10 20//10
f 21//11 20//10 19//10
f 20//10 21//11 22//11
f 23//12 22//11 21//11
f 22//11 23//12 24//12
f 25//13 24//12 23//12
f 24//12 25//13 26//13
usemtl material_1_0
f 3//14 2//14 1//15
f 4//15 1//15 2//14
f 1//15 4//15 5//16
f 6//16 5//16 4//15
f 5//16 6//16 7//17
f 8//17 7//17 6//16
f 7//17 8//17 9//18
f 10//18 9//18 8//17
f 9//18 10//18 11//19
f 12//19 11//19 10//18
f 11//19 12//19 13//20
f 14//20 13//20 12//19
f 13//20 14//20 15//21
f 16//21 15//21 14//20
f 15//21 16//21 17//22
f 18//22 17//22 16//21
f 17//22 18//22 19//23
f 20//23 19//23 18//22
f 19//23 20//23 21//24
f 22//24 21//24 20//23
f 21//24 22//24 23//25
f 24//25 23//25 22//24
f 23//25 24//25 25//26
f 26//26 25//26 24//25
