# SSTK version 0.8.0
# 8
mtllib original-8.mtl
o Group8/mesh15/mesh15-geometry#mesh15-geometry
v 0.304819 0.555134 -0.111251
v 0.088964 0.266126 -0.060911
v 0.290374 0.561789 -0.125770
v 0.322579 0.546049 -0.092778
v 0.075977 0.279112 -0.042039
v 0.277387 0.574776 -0.106898
v 0.291833 0.568120 -0.092378
v 0.339844 0.536290 -0.074182
v 0.309592 0.559035 -0.073906
v 0.356598 0.525866 -0.055480
v 0.326857 0.549277 -0.055310
v 0.099619 0.261217 -0.050201
v 0.343611 0.538853 -0.036607
v 0.372826 0.514788 -0.036689
v 0.109995 0.255909 -0.039409
v 0.086633 0.274203 -0.031329
v 0.359839 0.527774 -0.017817
v 0.120083 0.250207 -0.028543
v 0.388511 0.503065 -0.017829
v 0.097009 0.268895 -0.020536
v 0.375524 0.516051 0.001043
v 0.129872 0.244116 -0.017616
v 0.107096 0.263194 -0.009671
v 0.403638 0.490709 0.001083
v 0.116885 0.257103 0.001256
v 0.390652 0.503696 0.019955
v 0.139353 0.237643 -0.006637
v 0.418193 0.477733 0.020028
v 0.148518 0.230795 0.004382
v 0.126367 0.250630 0.012235
v 0.405206 0.490720 0.038900
v 0.135531 0.243781 0.023254
v 0.432162 0.464148 0.038988
v 0.157356 0.223575 0.015432
v 0.144370 0.236562 0.034304
v 0.419175 0.477135 0.057860
v 0.165860 0.215994 0.026501
v 0.152873 0.228981 0.045373
v 0.445530 0.449969 0.057945
v 0.174021 0.208057 0.037578
v 0.161035 0.221043 0.056451
v 0.432543 0.462955 0.076817
v 0.181832 0.199772 0.048654
v 0.168846 0.212759 0.067527
v 0.458286 0.435207 0.076880
v 0.189285 0.191147 0.059718
v 0.176298 0.204134 0.078590
v 0.445299 0.448194 0.095753
v 0.467895 0.423065 0.091848
v 0.196373 0.182191 0.070758
v 0.183386 0.195178 0.089630
v 0.454908 0.436052 0.110720
vn 0.49315511579628685 -0.49315511579628685 -0.7166561682759046
vn -0.49315511579628685 0.49315511579628685 0.7166561682759046
vn -0.6707617771380949 0.3090278973248801 -0.6742257759871746
vn 0.6707617771380949 -0.3090278973248801 0.6742257759871746
vn 0.5539639424450882 0.8132039155109637 -0.17839098146580232
vn 0.5643218737685471 0.8083028191931876 -0.1678909624449785
vn -0.5539639424450882 -0.8132039155109637 0.17839098146580232
vn -0.5643218737685471 -0.8083028191931876 0.1678909624449785
vn 0.5846261394579052 0.7979161903365466 -0.14677203501129898
vn -0.5846261394579052 -0.7979161903365466 0.14677203501129898
vn 0.6043656986760294 0.7867586077387778 -0.12551093742289793
vn -0.6043656986760294 -0.7867586077387778 0.12551093742289793
vn 0.6235211081478751 0.7748411343938819 -0.10412801806069391
vn -0.6235211081478751 -0.7748411343938819 0.10412801806069391
vn 0.642074016653474 0.7621750197685337 -0.08264500214356345
vn -0.642074016653474 -0.7621750197685337 0.08264500214356345
vn 0.6600070392961602 0.7487720445811401 -0.06108300363682106
vn -0.6600070392961602 -0.7487720445811401 0.06108300363682106
vn 0.6773020287714522 0.7346460312073968 -0.039461001676283664
vn -0.6773020287714522 -0.7346460312073968 0.039461001676283664
vn 0.6939419130192443 0.7198109097767469 -0.017800997768769682
vn -0.6939419130192443 -0.7198109097767469 0.017800997768769682
vn 0.7099123617142837 0.7042793588441582 0.0038760019748990916
vn -0.7099123617142837 -0.7042793588441582 -0.0038760019748990916
vn 0.7251966142197979 0.6880676339711663 0.02554998640826677
vn -0.7251966142197979 -0.6880676339711663 -0.02554998640826677
vn 0.7397802004490208 0.6711911818643093 0.04719801278865728
vn -0.7397802004490208 -0.6711911818643093 -0.04719801278865728
vn 0.7468047404275205 0.6625087697268982 0.05800697983808248
vn -0.7468047404275205 -0.6625087697268982 -0.05800697983808248
vn 0.4461848789041017 -0.5638088469806082 0.6950098113722777
vn -0.4461848789041017 0.5638088469806082 -0.6950098113722777
usemtl material_0_0
f 1//1 2//1 3//1
f 2//1 1//1 4//1
f 3//2 2//2 1//2
f 4//2 1//2 2//2
f 5//3 3//3 2//3
f 2//4 3//4 5//4
f 6//5 1//6 3//5
f 3//7 1//8 6//7
f 7//6 4//9 1//6
f 1//8 4//10 7//8
f 2//1 4//1 8//1
f 8//2 4//2 2//2
f 3//3 5//3 6//3
f 6//4 5//4 3//4
f 1//6 6//5 7//6
f 7//8 6//7 1//8
f 4//9 7//6 9//9
f 9//10 7//8 4//10
f 9//9 8//11 4//9
f 4//10 8//12 9//10
f 2//1 8//1 10//1
f 10//2 8//2 2//2
f 5//2 7//2 6//2
f 6//1 7//1 5//1
f 7//2 5//2 9//2
f 9//1 5//1 7//1
f 8//11 9//9 11//11
f 11//12 9//10 8//12
f 11//11 10//13 8//11
f 8//12 10//14 11//12
f 2//1 10//1 12//1
f 12//2 10//2 2//2
f 9//2 5//2 11//2
f 11//1 5//1 9//1
f 10//13 11//11 13//13
f 13//14 11//12 10//14
f 12//1 10//1 14//1
f 14//2 10//2 12//2
f 11//2 5//2 13//2
f 13//1 5//1 11//1
f 13//13 14//15 10//13
f 10//14 14//16 13//14
f 12//1 14//1 15//1
f 15//2 14//2 12//2
f 13//2 5//2 16//2
f 16//1 5//1 13//1
f 14//15 13//13 17//15
f 17//16 13//14 14//16
f 15//1 14//1 18//1
f 18//2 14//2 15//2
f 13//2 16//2 17//2
f 17//1 16//1 13//1
f 17//15 19//17 14//15
f 14//16 19//18 17//16
f 18//1 14//1 19//1
f 19//2 14//2 18//2
f 17//2 16//2 20//2
f 20//1 16//1 17//1
f 19//17 17//15 21//17
f 21//18 17//16 19//18
f 18//1 19//1 22//1
f 22//2 19//2 18//2
f 17//2 20//2 23//2
f 23//1 20//1 17//1
f 17//2 23//2 21//2
f 21//1 23//1 17//1
f 21//17 24//19 19//17
f 19//18 24//20 21//18
f 22//1 19//1 24//1
f 24//2 19//2 22//2
f 21//2 23//2 25//2
f 25//1 23//1 21//1
f 24//19 21//17 26//19
f 26//20 21//18 24//20
f 22//1 24//1 27//1
f 27//2 24//2 22//2
f 21//2 25//2 26//2
f 26//1 25//1 21//1
f 26//19 28//21 24//19
f 24//20 28//22 26//20
f 27//1 24//1 29//1
f 29//2 24//2 27//2
f 26//2 25//2 30//2
f 30//1 25//1 26//1
f 28//21 26//19 31//21
f 31//22 26//20 28//22
f 29//1 24//1 28//1
f 28//2 24//2 29//2
f 26//2 30//2 32//2
f 32//1 30//1 26//1
f 26//2 32//2 31//2
f 31//1 32//1 26//1
f 31//21 33//23 28//21
f 28//22 33//24 31//22
f 29//1 28//1 34//1
f 34//2 28//2 29//2
f 31//2 32//2 35//2
f 35//1 32//1 31//1
f 33//23 31//21 36//23
f 36//24 31//22 33//24
f 37//1 28//1 33//1
f 33//2 28//2 37//2
f 34//1 28//1 37//1
f 37//2 28//2 34//2
f 31//2 35//2 38//2
f 38//1 35//1 31//1
f 31//2 38//2 36//2
f 36//1 38//1 31//1
f 36//23 39//25 33//23
f 33//24 39//26 36//24
f 37//1 33//1 40//1
f 40//2 33//2 37//2
f 36//2 38//2 41//2
f 41//1 38//1 36//1
f 39//25 36//23 42//25
f 42//26 36//24 39//26
f 43//1 33//1 39//1
f 39//2 33//2 43//2
f 40//1 33//1 43//1
f 43//2 33//2 40//2
f 36//2 41//2 44//2
f 44//1 41//1 36//1
f 36//2 44//2 42//2
f 42//1 44//1 36//1
f 42//25 45//27 39//25
f 39//26 45//28 42//26
f 43//1 39//1 46//1
f 46//2 39//2 43//2
f 42//2 44//2 47//2
f 47//1 44//1 42//1
f 45//27 42//25 48//27
f 48//28 42//26 45//28
f 46//1 39//1 45//1
f 45//2 39//2 46//2
f 42//2 47//2 48//2
f 48//1 47//1 42//1
f 48//27 49//29 45//27
f 45//28 49//30 48//28
f 46//1 45//1 50//1
f 50//2 45//2 46//2
f 48//2 47//2 51//2
f 51//1 47//1 48//1
f 49//29 48//27 52//29
f 52//30 48//28 49//30
f 50//1 45//1 49//1
f 49//2 45//2 50//2
f 48//2 51//2 52//2
f 52//1 51//1 48//1
f 51//31 49//31 52//31
f 52//32 49//32 51//32
f 49//31 51//31 50//31
f 50//32 51//32 49//32
