# Blender 4.1.1
# www.blender.org
o Plane
v -0.635000 -0.610000 -0.010001
v 0.838200 -0.610000 -0.010001
v -0.221226 -0.164581 0.086866
v -0.635000 0.610000 -0.010001
v 0.838200 0.610000 -0.010001
v -0.221226 0.164581 0.086866
v -0.001934 -0.164581 0.086866
v -0.001934 0.164581 0.086866
v -0.223985 -0.167170 -0.009046
v -0.223985 0.167170 -0.009046
v -0.001934 0.164581 -0.005774
v -0.001934 -0.164581 -0.005774
v -0.635000 -0.610000 0.000000
v 0.838200 -0.610000 0.000000
v -0.227000 -0.170000 0.092640
v -0.635000 0.610000 0.000000
v 0.838200 0.610000 0.000000
v -0.227000 0.170000 0.092640
v 0.003840 -0.170000 0.092640
v 0.003840 0.170000 0.092640
v -0.227000 -0.170000 0.000000
v -0.227000 0.170000 0.000000
v 0.003840 0.170000 0.000000
v 0.003840 -0.170000 0.000000
vn 0.0023 -0.0000 -1.0000
vn -0.0050 -0.0000 -1.0000
vn 0.9996 -0.0000 -0.0288
vn -0.0113 -0.9996 -0.0267
vn -1.0000 -0.0000 -0.0000
vn -0.0113 0.9996 -0.0267
vn -0.0000 -0.0000 -1.0000
vn -0.0000 -0.0000 1.0000
vn -0.0000 1.0000 -0.0000
vn 1.0000 -0.0000 -0.0000
vn -0.0000 -1.0000 -0.0000
vn -0.0000 -0.0022 -1.0000
vn -0.0000 0.0022 -1.0000
vn 0.0143 0.0365 -0.9992
vn 0.0143 -0.0365 -0.9992
vt 0.000000 0.000000
vt 0.275405 0.670328
vt 0.275405 0.378852
vt 1.000000 1.000000
vt 1.000000 0.000000
vt 0.433069 0.670328
vt 0.375473 0.250000
vt 0.625000 0.000000
vt 0.375473 0.000000
vt 0.375473 0.500000
vt 0.625000 0.250000
vt 0.625000 0.500000
vt 0.375473 0.750000
vt 0.625000 0.750000
vt 0.625000 1.000000
vt 0.375473 1.000000
vt 0.875000 0.500000
vt 0.433069 0.378852
vt 0.000000 1.000000
vt 0.875000 0.750000
s 0
f 1/1/1 10/2/1 9/3/1
f 5/4/2 2/5/2 11/6/2
f 10/7/3 3/8/3 9/9/3
f 11/10/4 6/11/4 10/7/4
f 8/12/5 12/13/5 7/14/5
f 3/15/6 12/13/6 9/16/6
f 7/14/7 6/17/7 8/12/7
f 22/2/8 13/1/8 21/3/8
f 24/18/8 14/5/8 17/4/8
f 21/9/5 18/11/5 22/7/5
f 22/7/9 20/12/9 23/10/9
f 24/13/10 20/12/10 19/14/10
f 21/16/11 19/14/11 15/15/11
f 18/17/8 19/14/8 20/12/8
f 2/5/11 13/1/11 1/1/11
f 1/1/5 16/19/5 4/19/5
f 4/19/9 17/4/9 5/4/9
f 5/4/10 14/5/10 2/5/10
f 1/1/1 4/19/1 10/2/1
f 10/2/12 4/19/12 5/4/12
f 2/5/13 1/1/13 9/3/13
f 2/5/14 9/3/14 12/18/14
f 11/6/15 10/2/15 5/4/15
f 2/5/2 12/18/2 11/6/2
f 10/7/3 6/11/3 3/8/3
f 11/10/11 8/12/11 6/11/11
f 8/12/5 11/10/5 12/13/5
f 3/15/9 7/14/9 12/13/9
f 7/14/7 3/20/7 6/17/7
f 22/2/8 16/19/8 13/1/8
f 17/4/8 16/19/8 22/2/8
f 17/4/8 22/2/8 23/6/8
f 21/3/8 13/1/8 14/5/8
f 17/4/8 23/6/8 24/18/8
f 24/18/8 21/3/8 14/5/8
f 21/9/5 15/8/5 18/11/5
f 22/7/9 18/11/9 20/12/9
f 24/13/10 23/10/10 20/12/10
f 21/16/11 24/13/11 19/14/11
f 18/17/8 15/20/8 19/14/8
f 2/5/11 14/5/11 13/1/11
f 1/1/5 13/1/5 16/19/5
f 4/19/9 16/19/9 17/4/9
f 5/4/10 17/4/10 14/5/10
