# Blender 4.1.1
# www.blender.org
o Plane
v -0.635000 -0.609998 0.000000
v 0.838039 0.609637 1.999900
v 0.838200 -0.609998 0.000000
v -0.226917 -0.185652 0.092640
v -0.635000 0.609998 0.000000
v 0.838039 0.536546 1.999900
v 0.838200 0.609998 0.000000
v -0.226917 0.185652 0.092640
v 0.688039 0.609637 1.999900
v 0.003840 -0.185652 0.092640
v 0.003840 0.185652 0.092640
v 0.688039 0.536546 1.999900
v -0.226917 -0.185652 0.000000
v -0.226917 0.185652 0.000000
v 0.688039 -0.609638 1.999900
v 0.003840 0.185652 0.000000
v 0.688039 -0.536546 1.999900
v 0.003840 -0.185652 0.000000
v -0.635000 -0.609998 -0.001000
v 0.838200 -0.609998 -0.001000
v 0.838039 -0.609638 1.999900
v -0.226340 -0.185049 0.092063
v -0.635000 0.609998 -0.001000
v 0.838039 -0.536546 1.999900
v 0.838200 0.609998 -0.001000
v -0.604260 0.609637 1.999900
v -0.226340 0.185049 0.092063
v 0.003262 -0.185049 0.092063
v -0.604260 0.536546 1.999900
v 0.003262 0.185049 0.092063
v -0.226616 -0.185337 -0.000905
v -0.226616 0.185337 -0.000905
v -0.634260 0.609637 1.999900
v 0.003262 0.185049 -0.000577
v -0.634260 0.536546 1.999900
v 0.003262 -0.185049 -0.000577
v -0.634260 -0.609637 1.999900
v -0.634260 -0.536546 1.999900
v -0.604261 -0.609637 1.999900
v -0.604260 -0.536546 1.999900
v -0.634260 0.609229 0.000000
v -0.604260 0.578033 0.000000
v -0.634260 -0.609229 0.000000
v -0.634260 -0.536546 0.000000
v -0.634260 0.536546 0.000000
v -0.604260 -0.578034 0.000000
v -0.604260 0.536546 0.000000
v -0.604260 -0.536546 0.000000
v -0.634260 0.609637 0.000000
v 0.688039 0.609637 0.000000
v -0.604260 0.609637 0.000000
v 0.688039 0.536546 0.000000
v -0.634260 -0.609637 0.000000
v -0.604261 -0.609637 0.000000
v 0.688039 -0.609638 0.000000
v 0.688039 -0.536546 0.000000
v 0.838039 0.609637 0.000000
v 0.838039 -0.609638 0.000000
v 0.838039 -0.536546 0.000000
v 0.838039 0.536546 0.000000
vn -0.0000 -0.0000 1.0000
vn -1.0000 -0.0000 -0.0000
vn -0.0000 1.0000 -0.0000
vn 1.0000 -0.0000 -0.0000
vn -0.0000 -1.0000 -0.0000
vn 0.0002 -0.0000 -1.0000
vn -0.0005 -0.0000 -1.0000
vn 1.0000 -0.0000 -0.0030
vn -0.0012 -1.0000 -0.0031
vn -0.0012 1.0000 -0.0031
vn -0.0000 -0.0000 -1.0000
vn 0.0014 0.0011 -1.0000
vn -0.0000 0.0002 -1.0000
vn 0.0014 0.0038 -1.0000
vn -0.0000 -0.0010 -1.0000
vt 0.000499 0.060261
vt 0.275405 0.378852
vt 0.000499 0.939829
vt 0.898072 0.000299
vt 0.020865 0.000317
vt 0.999891 0.939794
vt 0.433069 0.378852
vt 0.999891 0.060208
vt 0.020865 0.999714
vt 0.433069 0.670328
vt 0.898072 0.999705
vt 0.375473 0.000000
vt 0.625000 0.250000
vt 0.375473 0.250000
vt 0.625000 0.500000
vt 0.375473 0.500000
vt 0.375473 0.750000
vt 0.625000 0.750000
vt 0.375473 1.000000
vt 0.625000 1.000000
vt 0.875000 0.500000
vt 0.000000 0.000000
vt 0.275405 0.670328
vt 1.000000 1.000000
vt 1.000000 0.000000
vt 0.000000 1.000000
vt 0.625000 0.000000
vt 0.375013 0.250000
vt 0.375013 0.000000
vt 0.375013 0.500000
vt 0.375013 0.750000
vt 0.375013 1.000000
vt 0.375012 0.108098
vt 0.375013 0.748603
vt 0.375013 0.001395
vt 0.375012 0.641905
vt 0.000499 0.999402
vt 0.000499 0.000686
vt 0.020745 0.062489
vt 0.020745 0.028538
vt 0.020746 0.975167
vt 0.020746 0.941216
vt 0.999891 0.000296
vt 0.898057 0.060685
vt 0.000501 0.000320
vt 0.000499 0.000686
vt 0.999891 0.999704
vt 0.898057 0.940103
vt 0.000499 0.999402
vt 0.000501 0.999717
vt 0.875000 0.750000
s 0
f 44/1/1 13/2/1 45/3/1
f 55/4/1 13/2/1 54/5/1
f 60/6/1 18/7/1 59/8/1
f 51/9/1 16/10/1 50/11/1
f 13/12/2 8/13/2 14/14/2
f 14/14/3 11/15/3 16/16/3
f 18/17/4 11/15/4 10/18/4
f 13/19/5 10/18/5 4/20/5
f 8/21/1 10/18/1 11/15/1
f 19/22/6 32/23/6 31/2/6
f 25/24/7 20/25/7 34/10/7
f 27/13/8 31/12/8 32/14/8
f 34/16/9 27/13/9 32/14/9
f 30/15/2 36/17/2 28/18/2
f 22/20/10 36/17/10 31/19/10
f 28/18/11 27/21/11 30/15/11
f 1/22/5 20/25/5 3/25/5
f 5/26/2 19/22/2 1/22/2
f 7/24/3 23/26/3 5/26/3
f 3/25/4 25/24/4 7/24/4
f 2/27/4 60/28/4 57/29/4
f 6/13/5 52/30/5 60/28/5
f 12/15/2 50/31/2 52/30/2
f 9/18/3 57/32/3 50/31/3
f 6/21/1 9/18/1 12/15/1
f 15/27/2 56/28/2 55/29/2
f 17/13/3 59/30/3 56/28/3
f 24/15/4 58/31/4 59/30/4
f 21/18/5 55/32/5 58/31/5
f 17/21/1 21/18/1 24/15/1
f 26/27/4 47/28/4 42/33/4
f 29/13/5 45/30/5 47/28/5
f 35/15/2 49/31/2 41/34/2
f 33/18/3 51/32/3 49/31/3
f 29/21/1 33/18/1 35/15/1
f 37/27/2 44/28/2 43/35/2
f 38/13/3 48/30/3 44/28/3
f 40/15/4 54/31/4 46/36/4
f 39/18/5 53/32/5 54/31/5
f 38/21/1 39/18/1 40/15/1
f 41/37/1 5/26/1 1/22/1
f 1/22/1 43/38/1 44/1/1
f 48/39/1 46/40/1 13/2/1
f 41/37/1 1/22/1 44/1/1
f 44/1/1 48/39/1 13/2/1
f 13/2/1 14/23/1 42/41/1
f 13/2/1 42/41/1 47/42/1
f 45/3/1 41/37/1 44/1/1
f 13/2/1 47/42/1 45/3/1
f 1/22/1 3/25/1 58/43/1
f 55/4/1 56/44/1 18/7/1
f 1/22/1 58/43/1 55/4/1
f 53/45/1 43/46/1 1/22/1
f 13/2/1 46/40/1 54/5/1
f 54/5/1 53/45/1 1/22/1
f 55/4/1 18/7/1 13/2/1
f 54/5/1 1/22/1 55/4/1
f 59/8/1 58/43/1 3/25/1
f 3/25/1 7/24/1 57/47/1
f 60/6/1 52/48/1 16/10/1
f 3/25/1 57/47/1 60/6/1
f 18/7/1 56/44/1 59/8/1
f 59/8/1 3/25/1 60/6/1
f 60/6/1 16/10/1 18/7/1
f 50/11/1 57/47/1 7/24/1
f 5/26/1 41/49/1 49/50/1
f 51/9/1 42/41/1 14/23/1
f 5/26/1 49/50/1 51/9/1
f 50/11/1 7/24/1 5/26/1
f 16/10/1 52/48/1 50/11/1
f 51/9/1 14/23/1 16/10/1
f 50/11/1 5/26/1 51/9/1
f 13/12/2 4/27/2 8/13/2
f 14/14/3 8/13/3 11/15/3
f 18/17/4 16/16/4 11/15/4
f 13/19/5 18/17/5 10/18/5
f 8/21/1 4/51/1 10/18/1
f 19/22/6 23/26/6 32/23/6
f 34/10/12 32/23/12 23/26/12
f 20/25/13 19/22/13 31/2/13
f 20/25/14 31/2/14 36/7/14
f 34/10/15 23/26/15 25/24/15
f 20/25/7 36/7/7 34/10/7
f 27/13/8 22/27/8 31/12/8
f 34/16/5 30/15/5 27/13/5
f 30/15/2 34/16/2 36/17/2
f 22/20/3 28/18/3 36/17/3
f 28/18/11 22/51/11 27/21/11
f 1/22/5 19/22/5 20/25/5
f 5/26/2 23/26/2 19/22/2
f 7/24/3 25/24/3 23/26/3
f 3/25/4 20/25/4 25/24/4
f 2/27/4 6/13/4 60/28/4
f 6/13/5 12/15/5 52/30/5
f 12/15/2 9/18/2 50/31/2
f 9/18/3 2/20/3 57/32/3
f 6/21/1 2/51/1 9/18/1
f 15/27/2 17/13/2 56/28/2
f 17/13/3 24/15/3 59/30/3
f 24/15/4 21/18/4 58/31/4
f 21/18/5 15/20/5 55/32/5
f 17/21/1 15/51/1 21/18/1
f 42/33/4 51/29/4 26/27/4
f 26/27/4 29/13/4 47/28/4
f 29/13/5 35/15/5 45/30/5
f 41/34/2 45/30/2 35/15/2
f 35/15/2 33/18/2 49/31/2
f 33/18/3 26/20/3 51/32/3
f 29/21/1 26/51/1 33/18/1
f 43/35/2 53/29/2 37/27/2
f 37/27/2 38/13/2 44/28/2
f 38/13/3 40/15/3 48/30/3
f 46/36/4 48/30/4 40/15/4
f 40/15/4 39/18/4 54/31/4
f 39/18/5 37/20/5 53/32/5
f 38/21/1 37/51/1 39/18/1
