# Blender 4.1.1
# www.blender.org
o Plane.001
v 0.635000 0.610000 0.000000
v -0.838200 0.610000 0.000000
v -0.838039 -0.609639 1.999900
v 0.635000 -0.610000 0.000000
v -0.838200 -0.610000 0.000000
v -0.838039 -0.536547 1.999900
v 0.226917 0.185652 0.000000
v 0.226917 -0.185652 0.000000
v -0.688039 -0.609639 1.999900
v -0.003840 -0.185652 0.000000
v -0.003840 0.185652 0.000000
v -0.688039 -0.536547 1.999900
v -0.688039 0.609639 1.999900
v -0.688039 0.536548 1.999900
v -0.838039 0.609639 1.999900
v -0.838039 0.536548 1.999900
v 0.604260 -0.609639 1.999900
v 0.604260 -0.536548 1.999900
v 0.634260 -0.609639 1.999900
v 0.634260 -0.536548 1.999900
v 0.634261 0.609639 1.999900
v 0.634260 0.536547 1.999900
v 0.604261 0.609639 1.999900
v 0.604261 0.536547 1.999900
v 0.634260 -0.609231 0.000000
v 0.604260 -0.578035 0.000000
v 0.634261 0.609231 0.000000
v 0.634260 0.536547 0.000000
v 0.634260 -0.536548 0.000000
v 0.604261 0.578036 0.000000
v 0.604260 -0.536548 0.000000
v 0.604261 0.536547 0.000000
v 0.634260 -0.609639 0.000000
v -0.688039 -0.609639 0.000000
v 0.604260 -0.609639 0.000000
v -0.688039 -0.536547 0.000000
v 0.634261 0.609639 0.000000
v 0.604261 0.609639 0.000000
v -0.688039 0.609639 0.000000
v -0.688039 0.536548 0.000000
v -0.838039 -0.609639 0.000000
v -0.838039 0.609639 0.000000
v -0.838039 0.536548 0.000000
v -0.838039 -0.536547 0.000000
vn -0.0000 -0.0000 1.0000
vn -1.0000 -0.0000 -0.0000
vn -0.0000 1.0000 -0.0000
vn 1.0000 -0.0000 -0.0000
vn -0.0000 -1.0000 -0.0000
vt 0.000499 0.060261
vt 0.275405 0.378852
vt 0.000499 0.939829
vt 0.020865 0.999714
vt 0.433069 0.670328
vt 0.898072 0.999706
vt 0.999891 0.939794
vt 0.433069 0.378852
vt 0.999891 0.060208
vt 0.898071 0.000299
vt 0.020865 0.000317
vt 0.625000 0.000000
vt 0.375013 0.250000
vt 0.375013 0.000000
vt 0.625000 0.250000
vt 0.375013 0.500000
vt 0.625000 0.500000
vt 0.375013 0.750000
vt 0.625000 0.750000
vt 0.375013 1.000000
vt 0.875000 0.500000
vt 0.375013 0.108099
vt 0.375012 0.748603
vt 0.375012 0.001393
vt 0.375012 0.641906
vt 0.000499 0.999402
vt 0.000000 1.000000
vt 0.000000 0.000000
vt 0.000499 0.000686
vt 0.020745 0.062490
vt 0.020745 0.028537
vt 0.275405 0.670328
vt 0.020745 0.975167
vt 0.020745 0.941216
vt 0.999891 0.999705
vt 1.000000 1.000000
vt 0.000499 0.999402
vt 0.000501 0.999717
vt 0.898057 0.940103
vt 0.999891 0.000297
vt 1.000000 0.000000
vt 0.898056 0.060685
vt 0.000501 0.000320
vt 0.000499 0.000686
vt 0.625000 1.000000
vt 0.875000 0.750000
s 0
f 28/1/1 7/2/1 29/3/1
f 35/4/1 10/5/1 34/6/1
f 44/7/1 11/8/1 43/9/1
f 39/10/1 7/2/1 38/11/1
f 3/12/2 44/13/2 41/14/2
f 6/15/3 36/16/3 44/13/3
f 12/17/4 34/18/4 36/16/4
f 9/19/5 41/20/5 34/18/5
f 6/21/1 9/19/1 12/17/1
f 13/12/4 40/13/4 39/14/4
f 14/15/5 43/16/5 40/13/5
f 16/17/2 42/18/2 43/16/2
f 15/19/3 39/20/3 42/18/3
f 14/21/1 15/19/1 16/17/1
f 17/12/2 31/13/2 26/22/2
f 18/15/3 29/16/3 31/13/3
f 20/17/4 33/18/4 25/23/4
f 19/19/5 35/20/5 33/18/5
f 18/21/1 19/19/1 20/17/1
f 21/12/4 28/13/4 27/24/4
f 22/15/5 32/16/5 28/13/5
f 24/17/2 38/18/2 30/25/2
f 23/19/3 37/20/3 38/18/3
f 22/21/1 23/19/1 24/17/1
f 25/26/1 4/27/1 1/28/1
f 1/28/1 27/29/1 28/1/1
f 32/30/1 30/31/1 7/2/1
f 25/26/1 1/28/1 28/1/1
f 28/1/1 32/30/1 7/2/1
f 7/2/1 8/32/1 26/33/1
f 7/2/1 26/33/1 31/34/1
f 29/3/1 25/26/1 28/1/1
f 7/2/1 31/34/1 29/3/1
f 34/6/1 41/35/1 5/36/1
f 4/27/1 25/37/1 33/38/1
f 35/4/1 26/33/1 8/32/1
f 4/27/1 33/38/1 35/4/1
f 34/6/1 5/36/1 4/27/1
f 10/5/1 36/39/1 34/6/1
f 35/4/1 8/32/1 10/5/1
f 34/6/1 4/27/1 35/4/1
f 43/9/1 42/40/1 2/41/1
f 2/41/1 5/36/1 41/35/1
f 44/7/1 36/39/1 10/5/1
f 2/41/1 41/35/1 44/7/1
f 11/8/1 40/42/1 43/9/1
f 43/9/1 2/41/1 44/7/1
f 44/7/1 10/5/1 11/8/1
f 1/28/1 2/41/1 42/40/1
f 39/10/1 40/42/1 11/8/1
f 1/28/1 42/40/1 39/10/1
f 37/43/1 27/44/1 1/28/1
f 7/2/1 30/31/1 38/11/1
f 38/11/1 37/43/1 1/28/1
f 39/10/1 11/8/1 7/2/1
f 38/11/1 1/28/1 39/10/1
f 3/12/2 6/15/2 44/13/2
f 6/15/3 12/17/3 36/16/3
f 12/17/4 9/19/4 34/18/4
f 9/19/5 3/45/5 41/20/5
f 6/21/1 3/46/1 9/19/1
f 13/12/4 14/15/4 40/13/4
f 14/15/5 16/17/5 43/16/5
f 16/17/2 15/19/2 42/18/2
f 15/19/3 13/45/3 39/20/3
f 14/21/1 13/46/1 15/19/1
f 26/22/2 35/14/2 17/12/2
f 17/12/2 18/15/2 31/13/2
f 18/15/3 20/17/3 29/16/3
f 25/23/4 29/16/4 20/17/4
f 20/17/4 19/19/4 33/18/4
f 19/19/5 17/45/5 35/20/5
f 18/21/1 17/46/1 19/19/1
f 27/24/4 37/14/4 21/12/4
f 21/12/4 22/15/4 28/13/4
f 22/15/5 24/17/5 32/16/5
f 30/25/2 32/16/2 24/17/2
f 24/17/2 23/19/2 38/18/2
f 23/19/3 21/45/3 37/20/3
f 22/21/1 21/46/1 23/19/1
