# Blender 4.1.1
# www.blender.org
o Plane.002
v -2.435000 -0.609998 0.300000
v -0.961800 -0.609998 0.300000
v -2.435000 0.609998 0.300000
v -0.961800 0.609998 0.300000
v -2.435000 -0.609998 0.289999
v -0.961800 -0.609998 0.289999
v -2.435000 0.609998 0.289999
v -0.961800 0.609998 0.289999
vn -0.0000 -0.0000 1.0000
vn -0.0000 -0.0000 -1.0000
vn -0.0000 -1.0000 -0.0000
vn -1.0000 -0.0000 -0.0000
vn -0.0000 1.0000 -0.0000
vn 1.0000 -0.0000 -0.0000
vt 0.000000 0.000000
s 0
f 4/1/1 1/1/1 2/1/1
f 5/1/2 8/1/2 6/1/2
f 1/1/3 6/1/3 2/1/3
f 3/1/4 5/1/4 1/1/4
f 4/1/5 7/1/5 3/1/5
f 2/1/6 8/1/6 4/1/6
f 4/1/1 3/1/1 1/1/1
f 5/1/2 7/1/2 8/1/2
f 1/1/3 5/1/3 6/1/3
f 3/1/4 7/1/4 5/1/4
f 4/1/5 8/1/5 7/1/5
f 2/1/6 6/1/6 8/1/6
