# Blender 4.1.1
# www.blender.org
o Cube
v 0.150000 0.190000 0.000000
v -0.150000 0.190000 0.000000
v 0.130000 0.150000 0.040000
v 0.150000 0.130000 0.040000
v 0.150000 0.164142 0.025858
v 0.131960 0.149904 0.040000
v 0.133902 0.149616 0.040000
v 0.135806 0.149139 0.040000
v 0.137654 0.148478 0.040000
v 0.139428 0.147638 0.040000
v 0.141111 0.146629 0.040000
v 0.142688 0.145460 0.040000
v 0.144142 0.144142 0.040000
v 0.145460 0.142688 0.040000
v 0.146629 0.141111 0.040000
v 0.147638 0.139428 0.040000
v 0.148478 0.137654 0.040000
v 0.149139 0.135806 0.040000
v 0.149616 0.133902 0.040000
v 0.149904 0.131960 0.040000
v 0.150000 -0.130000 0.040000
v 0.130000 -0.150000 0.040000
v 0.149904 -0.131960 0.040000
v 0.149616 -0.133902 0.040000
v 0.149139 -0.135806 0.040000
v 0.148478 -0.137654 0.040000
v 0.147638 -0.139428 0.040000
v 0.146629 -0.141111 0.040000
v 0.145460 -0.142688 0.040000
v 0.144142 -0.144142 0.040000
v 0.142688 -0.145460 0.040000
v 0.141111 -0.146629 0.040000
v 0.139428 -0.147638 0.040000
v 0.137654 -0.148478 0.040000
v 0.135806 -0.149139 0.040000
v 0.133902 -0.149616 0.040000
v 0.131960 -0.149904 0.040000
v 0.150000 -0.130000 0.000000
v 0.130000 -0.150000 0.000000
v 0.149904 -0.131960 0.000000
v 0.149616 -0.133902 0.000000
v 0.149139 -0.135806 0.000000
v 0.148478 -0.137654 0.000000
v 0.147638 -0.139428 0.000000
v 0.146629 -0.141111 0.000000
v 0.145460 -0.142688 0.000000
v 0.144142 -0.144142 0.000000
v 0.142688 -0.145460 0.000000
v 0.141111 -0.146629 0.000000
v 0.139428 -0.147638 0.000000
v 0.137654 -0.148478 0.000000
v 0.135806 -0.149139 0.000000
v 0.133902 -0.149616 0.000000
v 0.131960 -0.149904 0.000000
v -0.150000 0.130000 0.040000
v -0.130000 0.150000 0.040000
v -0.150000 0.164142 0.025858
v -0.149904 0.131960 0.040000
v -0.149616 0.133902 0.040000
v -0.149139 0.135806 0.040000
v -0.148478 0.137654 0.040000
v -0.147638 0.139428 0.040000
v -0.146629 0.141111 0.040000
v -0.145460 0.142688 0.040000
v -0.144142 0.144142 0.040000
v -0.142688 0.145460 0.040000
v -0.141111 0.146629 0.040000
v -0.139428 0.147638 0.040000
v -0.137654 0.148478 0.040000
v -0.135806 0.149139 0.040000
v -0.133902 0.149616 0.040000
v -0.131960 0.149904 0.040000
v -0.130000 -0.150000 0.040000
v -0.150000 -0.130000 0.040000
v -0.131960 -0.149904 0.040000
v -0.133902 -0.149616 0.040000
v -0.135806 -0.149139 0.040000
v -0.137654 -0.148478 0.040000
v -0.139428 -0.147638 0.040000
v -0.141111 -0.146629 0.040000
v -0.142688 -0.145460 0.040000
v -0.144142 -0.144142 0.040000
v -0.145460 -0.142688 0.040000
v -0.146629 -0.141111 0.040000
v -0.147638 -0.139428 0.040000
v -0.148478 -0.137654 0.040000
v -0.149139 -0.135806 0.040000
v -0.149616 -0.133902 0.040000
v -0.149904 -0.131960 0.040000
v -0.130000 -0.150000 0.000000
v -0.150000 -0.130000 0.000000
v -0.131960 -0.149904 0.000000
v -0.133902 -0.149616 0.000000
v -0.135806 -0.149139 0.000000
v -0.137654 -0.148478 0.000000
v -0.139428 -0.147638 0.000000
v -0.141111 -0.146629 0.000000
v -0.142688 -0.145460 0.000000
v -0.144142 -0.144142 0.000000
v -0.145460 -0.142688 0.000000
v -0.146629 -0.141111 0.000000
v -0.147638 -0.139428 0.000000
v -0.148478 -0.137654 0.000000
v -0.149139 -0.135806 0.000000
v -0.149616 -0.133902 0.000000
v -0.149904 -0.131960 0.000000
v 0.129975 -0.149000 0.050000
v 0.130000 -0.150000 0.049000
v 0.149000 -0.129975 0.050000
v 0.150000 -0.130000 0.049000
v 0.131862 -0.148907 0.050000
v 0.131960 -0.149904 0.049000
v 0.133706 -0.148634 0.050000
v 0.133902 -0.149616 0.049000
v 0.135515 -0.148181 0.050000
v 0.135806 -0.149139 0.049000
v 0.137270 -0.147553 0.050000
v 0.137654 -0.148478 0.049000
v 0.138956 -0.146755 0.050000
v 0.139428 -0.147638 0.049000
v 0.140555 -0.145797 0.050000
v 0.141111 -0.146629 0.049000
v 0.142053 -0.144686 0.050000
v 0.142688 -0.145460 0.049000
v 0.143434 -0.143434 0.050000
v 0.144142 -0.144142 0.049000
v 0.144686 -0.142053 0.050000
v 0.145460 -0.142688 0.049000
v 0.145797 -0.140555 0.050000
v 0.146629 -0.141111 0.049000
v 0.146755 -0.138956 0.050000
v 0.147638 -0.139428 0.049000
v 0.147553 -0.137270 0.050000
v 0.148478 -0.137654 0.049000
v 0.148181 -0.135515 0.050000
v 0.149139 -0.135806 0.049000
v 0.148634 -0.133706 0.050000
v 0.149616 -0.133902 0.049000
v 0.148907 -0.131862 0.050000
v 0.149904 -0.131960 0.049000
v -0.149000 -0.129975 0.050000
v -0.150000 -0.130000 0.049000
v -0.129975 -0.149000 0.050000
v -0.130000 -0.150000 0.049000
v -0.148907 -0.131862 0.050000
v -0.149904 -0.131960 0.049000
v -0.148634 -0.133706 0.050000
v -0.149616 -0.133902 0.049000
v -0.148181 -0.135515 0.050000
v -0.149139 -0.135806 0.049000
v -0.147553 -0.137270 0.050000
v -0.148478 -0.137654 0.049000
v -0.146755 -0.138956 0.050000
v -0.147638 -0.139428 0.049000
v -0.145797 -0.140555 0.050000
v -0.146629 -0.141111 0.049000
v -0.144686 -0.142053 0.050000
v -0.145460 -0.142688 0.049000
v -0.143434 -0.143434 0.050000
v -0.144142 -0.144142 0.049000
v -0.142053 -0.144686 0.050000
v -0.142688 -0.145460 0.049000
v -0.140555 -0.145797 0.050000
v -0.141111 -0.146629 0.049000
v -0.138956 -0.146755 0.050000
v -0.139428 -0.147638 0.049000
v -0.137270 -0.147553 0.050000
v -0.137654 -0.148478 0.049000
v -0.135515 -0.148181 0.050000
v -0.135806 -0.149139 0.049000
v -0.133706 -0.148634 0.050000
v -0.133902 -0.149616 0.049000
v -0.131862 -0.148907 0.050000
v -0.131960 -0.149904 0.049000
v 0.149000 0.129975 0.050000
v 0.150000 0.130000 0.049000
v 0.129975 0.149000 0.050000
v 0.130000 0.150000 0.049000
v 0.148907 0.131862 0.050000
v 0.149904 0.131960 0.049000
v 0.148634 0.133706 0.050000
v 0.149616 0.133902 0.049000
v 0.148181 0.135515 0.050000
v 0.149139 0.135806 0.049000
v 0.147553 0.137270 0.050000
v 0.148478 0.137654 0.049000
v 0.146755 0.138956 0.050000
v 0.147638 0.139428 0.049000
v 0.145797 0.140555 0.050000
v 0.146629 0.141111 0.049000
v 0.144686 0.142053 0.050000
v 0.145460 0.142688 0.049000
v 0.143434 0.143434 0.050000
v 0.144142 0.144142 0.049000
v 0.142053 0.144686 0.050000
v 0.142688 0.145460 0.049000
v 0.140555 0.145797 0.050000
v 0.141111 0.146629 0.049000
v 0.138956 0.146755 0.050000
v 0.139428 0.147638 0.049000
v 0.137270 0.147553 0.050000
v 0.137654 0.148478 0.049000
v 0.135515 0.148181 0.050000
v 0.135806 0.149139 0.049000
v 0.133706 0.148634 0.050000
v 0.133902 0.149616 0.049000
v 0.131862 0.148907 0.050000
v 0.131960 0.149904 0.049000
v -0.129975 0.149000 0.050000
v -0.130000 0.150000 0.049000
v -0.149000 0.129975 0.050000
v -0.150000 0.130000 0.049000
v -0.131862 0.148907 0.050000
v -0.131960 0.149904 0.049000
v -0.133706 0.148634 0.050000
v -0.133902 0.149616 0.049000
v -0.135515 0.148181 0.050000
v -0.135806 0.149139 0.049000
v -0.137270 0.147553 0.050000
v -0.137654 0.148478 0.049000
v -0.138956 0.146755 0.050000
v -0.139428 0.147638 0.049000
v -0.140555 0.145797 0.050000
v -0.141111 0.146629 0.049000
v -0.142053 0.144686 0.050000
v -0.142688 0.145460 0.049000
v -0.143434 0.143434 0.050000
v -0.144142 0.144142 0.049000
v -0.144686 0.142053 0.050000
v -0.145460 0.142688 0.049000
v -0.145797 0.140555 0.050000
v -0.146629 0.141111 0.049000
v -0.146755 0.138956 0.050000
v -0.147638 0.139428 0.049000
v -0.147553 0.137270 0.050000
v -0.148478 0.137654 0.049000
v -0.148181 0.135515 0.050000
v -0.149139 0.135806 0.049000
v -0.148634 0.133706 0.050000
v -0.149616 0.133902 0.049000
v -0.148907 0.131862 0.050000
v -0.149904 0.131960 0.049000
vn 0.1467 -0.9892 -0.0000
vn -0.0000 -0.0000 1.0000
vn -0.0491 -0.9988 -0.0000
vn -1.0000 -0.0000 -0.0000
vn 0.9892 0.1467 -0.0000
vn 1.0000 -0.0000 -0.0000
vn -0.0000 -0.0000 -1.0000
vn 0.9988 -0.0491 -0.0000
vn -0.0000 -1.0000 -0.0000
vn 0.0335 0.6826 0.7300
vn 0.0947 0.6386 0.7637
vn 0.1501 0.5992 0.7864
vn 0.2018 0.5639 0.8008
vn 0.2515 0.5318 0.8086
vn 0.3009 0.5020 0.8108
vn 0.3514 0.4738 0.8075
vn 0.4043 0.4461 0.7984
vn 0.4614 0.4182 0.7825
vn 0.5241 0.3887 0.7578
vn 0.5940 0.3560 0.7214
vn 0.6726 0.3181 0.6682
vn 0.7596 0.2718 0.5909
vn 0.8514 0.2133 0.4792
vn 0.9363 0.1389 0.3224
vn 0.9919 0.0487 0.1176
vn -0.9919 0.0487 0.1176
vn -0.9363 0.1389 0.3224
vn -0.8514 0.2133 0.4792
vn -0.7596 0.2718 0.5909
vn -0.6726 0.3181 0.6682
vn -0.5940 0.3560 0.7214
vn -0.5241 0.3887 0.7578
vn -0.4614 0.4182 0.7825
vn -0.4043 0.4461 0.7984
vn -0.3514 0.4738 0.8075
vn -0.3009 0.5020 0.8108
vn -0.2515 0.5318 0.8086
vn -0.2018 0.5639 0.8008
vn -0.1501 0.5992 0.7864
vn -0.0947 0.6386 0.7637
vn -0.0335 0.6826 0.7300
vn -0.1467 -0.9892 -0.0000
vn -0.2430 -0.9700 -0.0000
vn -0.3369 -0.9415 -0.0000
vn -0.4276 -0.9040 -0.0000
vn -0.5141 -0.8577 -0.0000
vn -0.5957 -0.8032 -0.0000
vn -0.6716 -0.7409 -0.0000
vn -0.7409 -0.6716 -0.0000
vn -0.8032 -0.5957 -0.0000
vn -0.8577 -0.5141 -0.0000
vn -0.9040 -0.4276 -0.0000
vn -0.9415 -0.3369 -0.0000
vn -0.9700 -0.2430 -0.0000
vn -0.9892 -0.1467 -0.0000
vn -0.9988 -0.0491 -0.0000
vn 0.0491 -0.9988 -0.0000
vn 0.2430 -0.9700 -0.0000
vn 0.3369 -0.9415 -0.0000
vn 0.4276 -0.9040 -0.0000
vn 0.5141 -0.8577 -0.0000
vn 0.5957 -0.8032 -0.0000
vn 0.6716 -0.7409 -0.0000
vn 0.7409 -0.6716 -0.0000
vn 0.8032 -0.5957 -0.0000
vn 0.8577 -0.5141 -0.0000
vn 0.9040 -0.4276 -0.0000
vn 0.9415 -0.3369 -0.0000
vn 0.9700 -0.2430 -0.0000
vn 0.9892 -0.1467 -0.0000
vn -0.1467 0.9892 -0.0000
vn -0.9892 0.1467 -0.0000
vn -0.9700 0.2430 -0.0000
vn -0.9415 0.3369 -0.0000
vn -0.9040 0.4276 -0.0000
vn -0.8577 0.5141 -0.0000
vn -0.8032 0.5957 -0.0000
vn -0.7410 0.6716 -0.0000
vn -0.6716 0.7410 -0.0000
vn -0.5957 0.8032 -0.0000
vn -0.5141 0.8577 -0.0000
vn -0.4275 0.9040 -0.0000
vn -0.3369 0.9415 -0.0000
vn -0.2430 0.9700 -0.0000
vn -0.9988 0.0491 -0.0000
vn 0.0491 0.9988 -0.0000
vn 0.9700 0.2430 -0.0000
vn 0.9415 0.3369 -0.0000
vn 0.9040 0.4276 -0.0000
vn 0.8577 0.5141 -0.0000
vn 0.8032 0.5957 -0.0000
vn 0.7410 0.6716 -0.0000
vn 0.6716 0.7410 -0.0000
vn 0.5957 0.8032 -0.0000
vn 0.5141 0.8577 -0.0000
vn 0.4275 0.9040 -0.0000
vn 0.3369 0.9415 -0.0000
vn 0.2430 0.9700 -0.0000
vn 0.1467 0.9892 -0.0000
vn -0.0491 0.9988 -0.0000
vn -0.0000 1.0000 -0.0000
vn 0.7410 -0.6716 -0.0000
vn 0.6716 -0.7410 -0.0000
vn 0.4275 -0.9040 -0.0000
vn -0.7410 -0.6716 -0.0000
vn -0.6716 -0.7410 -0.0000
vn -0.4275 -0.9040 -0.0000
vn 0.9988 0.0491 -0.0000
vn -0.0000 0.7071 0.7071
vn -0.7063 0.0347 0.7071
vn -0.6995 0.1037 0.7071
vn -0.6859 0.1718 0.7071
vn -0.6658 0.2382 0.7071
vn -0.6392 0.3023 0.7071
vn -0.6065 0.3635 0.7071
vn -0.5680 0.4212 0.7071
vn -0.5239 0.4749 0.7071
vn -0.4749 0.5239 0.7071
vn -0.4212 0.5680 0.7071
vn -0.3635 0.6065 0.7071
vn -0.3023 0.6392 0.7071
vn -0.2382 0.6658 0.7071
vn -0.1718 0.6859 0.7071
vn -0.1038 0.6995 0.7071
vn -0.0347 0.7063 0.7071
vn 0.7063 0.0347 0.7071
vn 0.6995 0.1038 0.7071
vn 0.6859 0.1718 0.7071
vn 0.6658 0.2382 0.7071
vn 0.6392 0.3023 0.7071
vn 0.6065 0.3635 0.7071
vn 0.5680 0.4212 0.7071
vn 0.5239 0.4749 0.7071
vn 0.4749 0.5239 0.7071
vn 0.4212 0.5680 0.7071
vn 0.3635 0.6065 0.7071
vn 0.3023 0.6392 0.7071
vn 0.2382 0.6658 0.7071
vn 0.1718 0.6859 0.7071
vn 0.1038 0.6994 0.7071
vn 0.0347 0.7063 0.7071
vn 0.7063 -0.0347 0.7071
vn 0.6994 -0.1037 0.7071
vn 0.6859 -0.1718 0.7071
vn 0.6658 -0.2382 0.7071
vn 0.6392 -0.3023 0.7071
vn 0.6065 -0.3635 0.7071
vn 0.5680 -0.4212 0.7071
vn 0.5239 -0.4749 0.7071
vn 0.4749 -0.5239 0.7071
vn 0.4212 -0.5680 0.7071
vn 0.3635 -0.6065 0.7071
vn 0.3023 -0.6392 0.7071
vn 0.2382 -0.6658 0.7071
vn 0.1718 -0.6859 0.7071
vn 0.1038 -0.6995 0.7071
vn 0.0347 -0.7063 0.7071
vn -0.7063 -0.0347 0.7071
vn -0.6995 -0.1038 0.7071
vn -0.6859 -0.1718 0.7071
vn -0.6658 -0.2382 0.7071
vn -0.6392 -0.3023 0.7071
vn -0.6065 -0.3635 0.7071
vn -0.5680 -0.4212 0.7071
vn -0.5239 -0.4749 0.7071
vn -0.4749 -0.5239 0.7071
vn -0.4212 -0.5680 0.7071
vn -0.3635 -0.6065 0.7071
vn -0.3023 -0.6392 0.7071
vn -0.2382 -0.6658 0.7071
vn -0.1718 -0.6859 0.7071
vn -0.1038 -0.6994 0.7071
vn -0.0347 -0.7063 0.7071
vn 0.7071 -0.0000 0.7071
vn -0.0000 -0.7071 0.7071
vn -0.7071 -0.0000 0.7071
vn -0.7409 0.6716 -0.0000
vn -0.6716 0.7409 -0.0000
vn -0.4276 0.9040 -0.0000
vn 0.7409 0.6716 -0.0000
vn 0.6716 0.7409 -0.0000
vn 0.4276 0.9040 -0.0000
vn -0.6995 0.1038 0.7071
vn -0.1038 0.6994 0.7071
vn 0.6994 0.1037 0.7071
vn 0.1038 0.6995 0.7071
vn 0.6995 -0.1038 0.7071
vn 0.1038 -0.6994 0.7071
vn -0.6995 -0.1037 0.7071
vn -0.1038 -0.6995 0.7071
s 0
f 114//1 37//1 36//1
f 191//2 153//2 117//2
f 75//3 144//3 174//3
f 74//4 57//4 2//4
f 20//5 182//5 180//5
f 5//6 21//6 38//6
f 44//7 95//7 103//7
f 110//8 23//8 21//8
f 22//9 90//9 39//9
f 3//10 6//10 5//10
f 6//11 7//11 5//11
f 7//12 8//12 5//12
f 8//13 9//13 5//13
f 9//14 10//14 5//14
f 10//15 11//15 5//15
f 11//16 12//16 5//16
f 12//17 13//17 5//17
f 13//18 14//18 5//18
f 14//19 15//19 5//19
f 15//20 16//20 5//20
f 16//21 17//21 5//21
f 17//22 18//22 5//22
f 18//23 19//23 5//23
f 19//24 20//24 5//24
f 20//25 4//25 5//25
f 55//26 58//26 57//26
f 58//27 59//27 57//27
f 59//28 60//28 57//28
f 60//29 61//29 57//29
f 61//30 62//30 57//30
f 62//31 63//31 57//31
f 63//32 64//32 57//32
f 64//33 65//33 57//33
f 65//34 66//34 57//34
f 66//35 67//35 57//35
f 67//36 68//36 57//36
f 68//37 69//37 57//37
f 69//38 70//38 57//38
f 70//39 71//39 57//39
f 71//40 72//40 57//40
f 72//41 56//41 57//41
f 73//3 92//3 90//3
f 75//42 93//42 92//42
f 76//43 94//43 93//43
f 77//44 95//44 94//44
f 78//45 96//45 95//45
f 79//46 97//46 96//46
f 80//47 98//47 97//47
f 81//48 99//48 98//48
f 82//49 100//49 99//49
f 83//50 101//50 100//50
f 84//51 102//51 101//51
f 85//52 103//52 102//52
f 86//53 104//53 103//53
f 87//54 105//54 104//54
f 88//55 106//55 105//55
f 89//56 91//56 106//56
f 39//57 37//57 22//57
f 54//1 36//1 37//1
f 53//58 35//58 36//58
f 52//59 34//59 35//59
f 51//60 33//60 34//60
f 50//61 32//61 33//61
f 49//62 31//62 32//62
f 48//63 30//63 31//63
f 47//64 29//64 30//64
f 46//65 28//65 29//65
f 45//66 27//66 28//66
f 44//67 26//67 27//67
f 43//68 25//68 26//68
f 42//69 24//69 25//69
f 41//70 23//70 24//70
f 40//8 21//8 23//8
f 216//71 72//71 71//71
f 242//72 59//72 58//72
f 240//73 60//73 59//73
f 238//74 61//74 60//74
f 236//75 62//75 61//75
f 234//76 63//76 62//76
f 232//77 64//77 63//77
f 230//78 65//78 64//78
f 228//79 66//79 65//79
f 226//80 67//80 66//80
f 224//81 68//81 67//81
f 222//82 69//82 68//82
f 220//83 70//83 69//83
f 218//84 71//84 70//84
f 212//85 58//85 55//85
f 6//86 178//86 208//86
f 19//87 184//87 182//87
f 18//88 186//88 184//88
f 17//89 188//89 186//89
f 16//90 190//90 188//90
f 15//91 192//91 190//91
f 14//92 194//92 192//92
f 13//93 196//93 194//93
f 12//94 198//94 196//94
f 11//95 200//95 198//95
f 10//96 202//96 200//96
f 9//97 204//97 202//97
f 8//98 206//98 204//98
f 7//99 208//99 206//99
f 214//100 56//100 72//100
f 56//101 178//101 3//101
f 4//6 110//6 21//6
f 74//56 146//56 142//56
f 140//70 24//70 23//70
f 138//69 25//69 24//69
f 136//68 26//68 25//68
f 134//67 27//67 26//67
f 132//66 28//66 27//66
f 130//65 29//65 28//65
f 128//102 30//102 29//102
f 126//103 31//103 30//103
f 124//62 32//62 31//62
f 122//61 33//61 32//61
f 120//104 34//104 33//104
f 118//59 35//59 34//59
f 116//58 36//58 35//58
f 22//9 144//9 73//9
f 74//4 212//4 55//4
f 88//54 150//54 148//54
f 87//53 152//53 150//53
f 86//52 154//52 152//52
f 85//51 156//51 154//51
f 84//50 158//50 156//50
f 83//105 160//105 158//105
f 82//106 162//106 160//106
f 81//47 164//47 162//47
f 80//46 166//46 164//46
f 79//107 168//107 166//107
f 78//44 170//44 168//44
f 77//43 172//43 170//43
f 76//42 174//42 172//42
f 4//108 180//108 176//108
f 89//55 148//55 146//55
f 57//109 3//109 1//109
f 241//110 212//110 211//110
f 239//111 242//111 241//111
f 239//112 238//112 240//112
f 235//113 238//113 237//113
f 235//114 234//114 236//114
f 231//115 234//115 233//115
f 231//116 230//116 232//116
f 229//117 228//117 230//117
f 225//118 228//118 227//118
f 223//119 226//119 225//119
f 223//120 222//120 224//120
f 219//121 222//121 221//121
f 219//122 218//122 220//122
f 215//123 218//123 217//123
f 215//124 214//124 216//124
f 213//125 210//125 214//125
f 179//126 176//126 180//126
f 181//127 180//127 182//127
f 181//128 184//128 183//128
f 185//129 184//129 186//129
f 185//130 188//130 187//130
f 189//131 188//131 190//131
f 189//132 192//132 191//132
f 191//133 194//133 193//133
f 195//134 194//134 196//134
f 197//135 196//135 198//135
f 197//136 200//136 199//136
f 201//137 200//137 202//137
f 201//138 204//138 203//138
f 205//139 204//139 206//139
f 205//140 208//140 207//140
f 207//141 178//141 177//141
f 139//142 110//142 109//142
f 137//143 140//143 139//143
f 137//144 136//144 138//144
f 133//145 136//145 135//145
f 133//146 132//146 134//146
f 129//147 132//147 131//147
f 129//148 128//148 130//148
f 127//149 126//149 128//149
f 123//150 126//150 125//150
f 121//151 124//151 123//151
f 121//152 120//152 122//152
f 117//153 120//153 119//153
f 117//154 116//154 118//154
f 113//155 116//155 115//155
f 113//156 112//156 114//156
f 111//157 108//157 112//157
f 145//158 142//158 146//158
f 147//159 146//159 148//159
f 147//160 150//160 149//160
f 151//161 150//161 152//161
f 151//162 154//162 153//162
f 155//163 154//163 156//163
f 155//164 158//164 157//164
f 157//165 160//165 159//165
f 161//166 160//166 162//166
f 163//167 162//167 164//167
f 163//168 166//168 165//168
f 167//169 166//169 168//169
f 167//170 170//170 169//170
f 171//171 170//171 172//171
f 171//172 174//172 173//172
f 173//173 144//173 143//173
f 177//109 210//109 209//109
f 109//174 176//174 175//174
f 143//175 108//175 107//175
f 211//176 142//176 141//176
f 112//57 22//57 37//57
f 114//1 112//1 37//1
f 109//2 175//2 179//2
f 179//2 181//2 183//2
f 183//2 185//2 187//2
f 187//2 189//2 191//2
f 191//2 193//2 195//2
f 195//2 197//2 199//2
f 199//2 201//2 203//2
f 203//2 205//2 207//2
f 207//2 177//2 209//2
f 209//2 213//2 215//2
f 215//2 217//2 219//2
f 219//2 221//2 223//2
f 223//2 225//2 227//2
f 227//2 229//2 231//2
f 231//2 233//2 235//2
f 235//2 237//2 239//2
f 239//2 241//2 211//2
f 211//2 141//2 145//2
f 145//2 147//2 149//2
f 149//2 151//2 153//2
f 153//2 155//2 157//2
f 157//2 159//2 161//2
f 161//2 163//2 165//2
f 165//2 167//2 169//2
f 169//2 171//2 173//2
f 173//2 143//2 107//2
f 107//2 111//2 113//2
f 113//2 115//2 117//2
f 117//2 119//2 121//2
f 121//2 123//2 125//2
f 125//2 127//2 129//2
f 129//2 131//2 133//2
f 133//2 135//2 137//2
f 137//2 139//2 109//2
f 109//2 179//2 183//2
f 183//2 187//2 191//2
f 191//2 195//2 199//2
f 199//2 203//2 207//2
f 207//2 209//2 215//2
f 215//2 219//2 223//2
f 223//2 227//2 231//2
f 231//2 235//2 239//2
f 239//2 211//2 145//2
f 145//2 149//2 153//2
f 153//2 157//2 161//2
f 161//2 165//2 169//2
f 169//2 173//2 107//2
f 107//2 113//2 117//2
f 117//2 121//2 125//2
f 125//2 129//2 133//2
f 133//2 137//2 109//2
f 109//2 183//2 191//2
f 191//2 199//2 207//2
f 207//2 215//2 223//2
f 223//2 231//2 239//2
f 239//2 145//2 153//2
f 153//2 161//2 169//2
f 169//2 107//2 117//2
f 117//2 125//2 133//2
f 133//2 109//2 191//2
f 191//2 207//2 223//2
f 223//2 239//2 153//2
f 153//2 169//2 117//2
f 117//2 133//2 191//2
f 191//2 223//2 153//2
f 75//3 73//3 144//3
f 2//4 91//4 74//4
f 74//4 55//4 57//4
f 20//5 19//5 182//5
f 38//6 1//6 5//6
f 5//6 4//6 21//6
f 91//7 2//7 1//7
f 1//7 38//7 40//7
f 40//7 41//7 42//7
f 42//7 43//7 44//7
f 44//7 45//7 46//7
f 46//7 47//7 48//7
f 48//7 49//7 50//7
f 50//7 51//7 52//7
f 52//7 53//7 54//7
f 54//7 39//7 90//7
f 90//7 92//7 93//7
f 93//7 94//7 95//7
f 95//7 96//7 97//7
f 97//7 98//7 99//7
f 99//7 100//7 101//7
f 101//7 102//7 103//7
f 103//7 104//7 105//7
f 105//7 106//7 91//7
f 91//7 1//7 40//7
f 40//7 42//7 44//7
f 44//7 46//7 48//7
f 48//7 50//7 52//7
f 52//7 54//7 90//7
f 90//7 93//7 95//7
f 95//7 97//7 99//7
f 99//7 101//7 103//7
f 103//7 105//7 91//7
f 91//7 40//7 44//7
f 44//7 48//7 52//7
f 52//7 90//7 95//7
f 95//7 99//7 103//7
f 103//7 91//7 44//7
f 44//7 52//7 95//7
f 110//8 140//8 23//8
f 22//9 73//9 90//9
f 73//3 75//3 92//3
f 75//42 76//42 93//42
f 76//43 77//43 94//43
f 77//44 78//44 95//44
f 78//107 79//107 96//107
f 79//46 80//46 97//46
f 80//47 81//47 98//47
f 81//48 82//48 99//48
f 82//105 83//105 100//105
f 83//50 84//50 101//50
f 84//51 85//51 102//51
f 85//52 86//52 103//52
f 86//53 87//53 104//53
f 87//54 88//54 105//54
f 88//55 89//55 106//55
f 89//56 74//56 91//56
f 39//57 54//57 37//57
f 54//1 53//1 36//1
f 53//58 52//58 35//58
f 52//59 51//59 34//59
f 51//104 50//104 33//104
f 50//61 49//61 32//61
f 49//62 48//62 31//62
f 48//63 47//63 30//63
f 47//102 46//102 29//102
f 46//65 45//65 28//65
f 45//66 44//66 27//66
f 44//67 43//67 26//67
f 43//68 42//68 25//68
f 42//69 41//69 24//69
f 41//70 40//70 23//70
f 40//8 38//8 21//8
f 216//71 214//71 72//71
f 242//72 240//72 59//72
f 240//73 238//73 60//73
f 238//74 236//74 61//74
f 236//75 234//75 62//75
f 234//76 232//76 63//76
f 232//77 230//77 64//77
f 230//177 228//177 65//177
f 228//178 226//178 66//178
f 226//80 224//80 67//80
f 224//81 222//81 68//81
f 222//179 220//179 69//179
f 220//83 218//83 70//83
f 218//84 216//84 71//84
f 212//85 242//85 58//85
f 6//86 3//86 178//86
f 19//87 18//87 184//87
f 18//88 17//88 186//88
f 17//89 16//89 188//89
f 16//90 15//90 190//90
f 15//91 14//91 192//91
f 14//180 13//180 194//180
f 13//181 12//181 196//181
f 12//94 11//94 198//94
f 11//95 10//95 200//95
f 10//182 9//182 202//182
f 9//97 8//97 204//97
f 8//98 7//98 206//98
f 7//99 6//99 208//99
f 214//100 210//100 56//100
f 56//101 210//101 178//101
f 4//6 176//6 110//6
f 74//56 89//56 146//56
f 140//70 138//70 24//70
f 138//69 136//69 25//69
f 136//68 134//68 26//68
f 134//67 132//67 27//67
f 132//66 130//66 28//66
f 130//65 128//65 29//65
f 128//64 126//64 30//64
f 126//63 124//63 31//63
f 124//62 122//62 32//62
f 122//61 120//61 33//61
f 120//60 118//60 34//60
f 118//59 116//59 35//59
f 116//58 114//58 36//58
f 22//9 108//9 144//9
f 74//4 142//4 212//4
f 88//54 87//54 150//54
f 87//53 86//53 152//53
f 86//52 85//52 154//52
f 85//51 84//51 156//51
f 84//50 83//50 158//50
f 83//49 82//49 160//49
f 82//48 81//48 162//48
f 81//47 80//47 164//47
f 80//46 79//46 166//46
f 79//45 78//45 168//45
f 78//44 77//44 170//44
f 77//43 76//43 172//43
f 76//42 75//42 174//42
f 4//108 20//108 180//108
f 89//55 88//55 148//55
f 1//109 2//109 57//109
f 57//109 56//109 3//109
f 3//109 5//109 1//109
f 241//110 242//110 212//110
f 239//183 240//183 242//183
f 239//112 237//112 238//112
f 235//113 236//113 238//113
f 235//114 233//114 234//114
f 231//115 232//115 234//115
f 231//116 229//116 230//116
f 229//117 227//117 228//117
f 225//118 226//118 228//118
f 223//119 224//119 226//119
f 223//120 221//120 222//120
f 219//121 220//121 222//121
f 219//122 217//122 218//122
f 215//123 216//123 218//123
f 215//184 213//184 214//184
f 213//125 209//125 210//125
f 179//126 175//126 176//126
f 181//185 179//185 180//185
f 181//128 182//128 184//128
f 185//129 183//129 184//129
f 185//130 186//130 188//130
f 189//131 187//131 188//131
f 189//132 190//132 192//132
f 191//133 192//133 194//133
f 195//134 193//134 194//134
f 197//135 195//135 196//135
f 197//136 198//136 200//136
f 201//137 199//137 200//137
f 201//138 202//138 204//138
f 205//139 203//139 204//139
f 205//186 206//186 208//186
f 207//141 208//141 178//141
f 139//142 140//142 110//142
f 137//187 138//187 140//187
f 137//144 135//144 136//144
f 133//145 134//145 136//145
f 133//146 131//146 132//146
f 129//147 130//147 132//147
f 129//148 127//148 128//148
f 127//149 125//149 126//149
f 123//150 124//150 126//150
f 121//151 122//151 124//151
f 121//152 119//152 120//152
f 117//153 118//153 120//153
f 117//154 115//154 116//154
f 113//155 114//155 116//155
f 113//188 111//188 112//188
f 111//157 107//157 108//157
f 145//158 141//158 142//158
f 147//189 145//189 146//189
f 147//160 148//160 150//160
f 151//161 149//161 150//161
f 151//162 152//162 154//162
f 155//163 153//163 154//163
f 155//164 156//164 158//164
f 157//165 158//165 160//165
f 161//166 159//166 160//166
f 163//167 161//167 162//167
f 163//168 164//168 166//168
f 167//169 165//169 166//169
f 167//170 168//170 170//170
f 171//171 169//171 170//171
f 171//190 172//190 174//190
f 173//173 174//173 144//173
f 177//109 178//109 210//109
f 109//174 110//174 176//174
f 143//175 144//175 108//175
f 211//176 212//176 142//176
f 112//57 108//57 22//57
